<?xml version="1.0" encoding="UTF-8" standalone="no"?>
<!DOCTYPE svg PUBLIC "-//W3C//DTD SVG 1.1//EN"
 "http://www.w3.org/Graphics/SVG/1.1/DTD/svg11.dtd">
<!-- Generated by graphviz version 2.43.0 (0)
 -->
<!-- Title: Trie Pages: 1 -->
<svg width="350pt" height="740pt"
 viewBox="0.00 0.00 350.00 740.00" xmlns="http://www.w3.org/2000/svg" xmlns:xlink="http://www.w3.org/1999/xlink">
<g id="graph0" class="graph" transform="scale(1 1) rotate(0) translate(4 736)">
<title>Trie</title>
<polygon fill="white" stroke="transparent" points="-4,4 -4,-736 346,-736 346,4 -4,4"/>
<!-- Node_0 -->
<g id="node1" class="node">
<title>Node_0</title>
<ellipse fill="none" stroke="black" cx="206" cy="-714" rx="29.8" ry="18"/>
<text text-anchor="middle" x="206" y="-710.3" font-family="Times,serif" font-size="14.00">root</text>
</g>
<!-- Node_1 -->
<g id="node2" class="node">
<title>Node_1</title>
<ellipse fill="none" stroke="black" cx="171" cy="-627" rx="27" ry="18"/>
<text text-anchor="middle" x="171" y="-623.3" font-family="Times,serif" font-size="14.00">A</text>
</g>
<!-- Node_0&#45;&gt;Node_1 -->
<g id="edge1" class="edge">
<title>Node_0&#45;&gt;Node_1</title>
<path fill="none" stroke="black" d="M199.09,-696.21C194.12,-684.14 187.32,-667.64 181.66,-653.89"/>
<polygon fill="black" stroke="black" points="184.83,-652.38 177.78,-644.47 178.35,-655.05 184.83,-652.38"/>
<text text-anchor="middle" x="195" y="-666.8" font-family="Times,serif" font-size="14.00">A</text>
</g>
<!-- Node_17 -->
<g id="node18" class="node">
<title>Node_17</title>
<ellipse fill="none" stroke="black" cx="243" cy="-627" rx="27" ry="18"/>
<text text-anchor="middle" x="243" y="-623.3" font-family="Times,serif" font-size="14.00">B</text>
</g>
<!-- Node_0&#45;&gt;Node_17 -->
<g id="edge17" class="edge">
<title>Node_0&#45;&gt;Node_17</title>
<path fill="none" stroke="black" d="M213.31,-696.21C218.56,-684.14 225.75,-667.64 231.73,-653.89"/>
<polygon fill="black" stroke="black" points="235.05,-655.04 235.83,-644.47 228.63,-652.24 235.05,-655.04"/>
<text text-anchor="middle" x="231.5" y="-666.8" font-family="Times,serif" font-size="14.00">B</text>
</g>
<!-- Node_2 -->
<g id="node3" class="node">
<title>Node_2</title>
<ellipse fill="none" stroke="black" cx="99" cy="-540" rx="27" ry="18"/>
<text text-anchor="middle" x="99" y="-536.3" font-family="Times,serif" font-size="14.00">p</text>
</g>
<!-- Node_1&#45;&gt;Node_2 -->
<g id="edge2" class="edge">
<title>Node_1&#45;&gt;Node_2</title>
<path fill="none" stroke="black" d="M158.13,-610.8C147.07,-597.75 130.96,-578.74 118.35,-563.85"/>
<polygon fill="black" stroke="black" points="120.89,-561.43 111.76,-556.06 115.55,-565.96 120.89,-561.43"/>
<text text-anchor="middle" x="145" y="-579.8" font-family="Times,serif" font-size="14.00">p</text>
</g>
<!-- Node_11 -->
<g id="node12" class="node">
<title>Node_11</title>
<ellipse fill="none" stroke="black" cx="171" cy="-540" rx="27" ry="18"/>
<text text-anchor="middle" x="171" y="-536.3" font-family="Times,serif" font-size="14.00">v</text>
</g>
<!-- Node_1&#45;&gt;Node_11 -->
<g id="edge11" class="edge">
<title>Node_1&#45;&gt;Node_11</title>
<path fill="none" stroke="black" d="M171,-608.8C171,-597.16 171,-581.55 171,-568.24"/>
<polygon fill="black" stroke="black" points="174.5,-568.18 171,-558.18 167.5,-568.18 174.5,-568.18"/>
<text text-anchor="middle" x="175.5" y="-579.8" font-family="Times,serif" font-size="14.00">v</text>
</g>
<!-- Node_3 -->
<g id="node4" class="node">
<title>Node_3</title>
<ellipse fill="none" stroke="black" cx="27" cy="-453" rx="27" ry="18"/>
<text text-anchor="middle" x="27" y="-449.3" font-family="Times,serif" font-size="14.00">p</text>
</g>
<!-- Node_2&#45;&gt;Node_3 -->
<g id="edge3" class="edge">
<title>Node_2&#45;&gt;Node_3</title>
<path fill="none" stroke="black" d="M86.13,-523.8C75.07,-510.75 58.96,-491.74 46.35,-476.85"/>
<polygon fill="black" stroke="black" points="48.89,-474.43 39.76,-469.06 43.55,-478.96 48.89,-474.43"/>
<text text-anchor="middle" x="73" y="-492.8" font-family="Times,serif" font-size="14.00">p</text>
</g>
<!-- Node_6 -->
<g id="node7" class="node">
<title>Node_6</title>
<ellipse fill="none" stroke="black" cx="99" cy="-453" rx="27" ry="18"/>
<text text-anchor="middle" x="99" y="-449.3" font-family="Times,serif" font-size="14.00">r</text>
</g>
<!-- Node_2&#45;&gt;Node_6 -->
<g id="edge6" class="edge">
<title>Node_2&#45;&gt;Node_6</title>
<path fill="none" stroke="black" d="M99,-521.8C99,-510.16 99,-494.55 99,-481.24"/>
<polygon fill="black" stroke="black" points="102.5,-481.18 99,-471.18 95.5,-481.18 102.5,-481.18"/>
<text text-anchor="middle" x="102.5" y="-492.8" font-family="Times,serif" font-size="14.00">r</text>
</g>
<!-- Node_4 -->
<g id="node5" class="node">
<title>Node_4</title>
<ellipse fill="none" stroke="black" cx="27" cy="-366" rx="27" ry="18"/>
<text text-anchor="middle" x="27" y="-362.3" font-family="Times,serif" font-size="14.00">l</text>
</g>
<!-- Node_3&#45;&gt;Node_4 -->
<g id="edge4" class="edge">
<title>Node_3&#45;&gt;Node_4</title>
<path fill="none" stroke="black" d="M27,-434.8C27,-423.16 27,-407.55 27,-394.24"/>
<polygon fill="black" stroke="black" points="30.5,-394.18 27,-384.18 23.5,-394.18 30.5,-394.18"/>
<text text-anchor="middle" x="29.5" y="-405.8" font-family="Times,serif" font-size="14.00">l</text>
</g>
<!-- Node_5 -->
<g id="node6" class="node">
<title>Node_5</title>
<ellipse fill="none" stroke="black" cx="27" cy="-279" rx="27" ry="18"/>
<text text-anchor="middle" x="27" y="-275.3" font-family="Times,serif" font-size="14.00">e</text>
</g>
<!-- Node_4&#45;&gt;Node_5 -->
<g id="edge5" class="edge">
<title>Node_4&#45;&gt;Node_5</title>
<path fill="none" stroke="black" d="M27,-347.8C27,-336.16 27,-320.55 27,-307.24"/>
<polygon fill="black" stroke="black" points="30.5,-307.18 27,-297.18 23.5,-307.18 30.5,-307.18"/>
<text text-anchor="middle" x="31.5" y="-318.8" font-family="Times,serif" font-size="14.00">e</text>
</g>
<!-- Node_7 -->
<g id="node8" class="node">
<title>Node_7</title>
<ellipse fill="none" stroke="black" cx="99" cy="-366" rx="27" ry="18"/>
<text text-anchor="middle" x="99" y="-362.3" font-family="Times,serif" font-size="14.00">i</text>
</g>
<!-- Node_6&#45;&gt;Node_7 -->
<g id="edge7" class="edge">
<title>Node_6&#45;&gt;Node_7</title>
<path fill="none" stroke="black" d="M99,-434.8C99,-423.16 99,-407.55 99,-394.24"/>
<polygon fill="black" stroke="black" points="102.5,-394.18 99,-384.18 95.5,-394.18 102.5,-394.18"/>
<text text-anchor="middle" x="101.5" y="-405.8" font-family="Times,serif" font-size="14.00">i</text>
</g>
<!-- Node_8 -->
<g id="node9" class="node">
<title>Node_8</title>
<ellipse fill="none" stroke="black" cx="99" cy="-279" rx="27" ry="18"/>
<text text-anchor="middle" x="99" y="-275.3" font-family="Times,serif" font-size="14.00">c</text>
</g>
<!-- Node_7&#45;&gt;Node_8 -->
<g id="edge8" class="edge">
<title>Node_7&#45;&gt;Node_8</title>
<path fill="none" stroke="black" d="M99,-347.8C99,-336.16 99,-320.55 99,-307.24"/>
<polygon fill="black" stroke="black" points="102.5,-307.18 99,-297.18 95.5,-307.18 102.5,-307.18"/>
<text text-anchor="middle" x="103" y="-318.8" font-family="Times,serif" font-size="14.00">c</text>
</g>
<!-- Node_9 -->
<g id="node10" class="node">
<title>Node_9</title>
<ellipse fill="none" stroke="black" cx="99" cy="-192" rx="27" ry="18"/>
<text text-anchor="middle" x="99" y="-188.3" font-family="Times,serif" font-size="14.00">o</text>
</g>
<!-- Node_8&#45;&gt;Node_9 -->
<g id="edge9" class="edge">
<title>Node_8&#45;&gt;Node_9</title>
<path fill="none" stroke="black" d="M99,-260.8C99,-249.16 99,-233.55 99,-220.24"/>
<polygon fill="black" stroke="black" points="102.5,-220.18 99,-210.18 95.5,-220.18 102.5,-220.18"/>
<text text-anchor="middle" x="103.5" y="-231.8" font-family="Times,serif" font-size="14.00">o</text>
</g>
<!-- Node_10 -->
<g id="node11" class="node">
<title>Node_10</title>
<ellipse fill="none" stroke="black" cx="99" cy="-105" rx="27" ry="18"/>
<text text-anchor="middle" x="99" y="-101.3" font-family="Times,serif" font-size="14.00">t</text>
</g>
<!-- Node_9&#45;&gt;Node_10 -->
<g id="edge10" class="edge">
<title>Node_9&#45;&gt;Node_10</title>
<path fill="none" stroke="black" d="M99,-173.8C99,-162.16 99,-146.55 99,-133.24"/>
<polygon fill="black" stroke="black" points="102.5,-133.18 99,-123.18 95.5,-133.18 102.5,-133.18"/>
<text text-anchor="middle" x="102.5" y="-144.8" font-family="Times,serif" font-size="14.00">t</text>
</g>
<!-- Node_12 -->
<g id="node13" class="node">
<title>Node_12</title>
<ellipse fill="none" stroke="black" cx="171" cy="-453" rx="27" ry="18"/>
<text text-anchor="middle" x="171" y="-449.3" font-family="Times,serif" font-size="14.00">o</text>
</g>
<!-- Node_11&#45;&gt;Node_12 -->
<g id="edge12" class="edge">
<title>Node_11&#45;&gt;Node_12</title>
<path fill="none" stroke="black" d="M171,-521.8C171,-510.16 171,-494.55 171,-481.24"/>
<polygon fill="black" stroke="black" points="174.5,-481.18 171,-471.18 167.5,-481.18 174.5,-481.18"/>
<text text-anchor="middle" x="175.5" y="-492.8" font-family="Times,serif" font-size="14.00">o</text>
</g>
<!-- Node_13 -->
<g id="node14" class="node">
<title>Node_13</title>
<ellipse fill="none" stroke="black" cx="171" cy="-366" rx="27" ry="18"/>
<text text-anchor="middle" x="171" y="-362.3" font-family="Times,serif" font-size="14.00">c</text>
</g>
<!-- Node_12&#45;&gt;Node_13 -->
<g id="edge13" class="edge">
<title>Node_12&#45;&gt;Node_13</title>
<path fill="none" stroke="black" d="M171,-434.8C171,-423.16 171,-407.55 171,-394.24"/>
<polygon fill="black" stroke="black" points="174.5,-394.18 171,-384.18 167.5,-394.18 174.5,-394.18"/>
<text text-anchor="middle" x="175" y="-405.8" font-family="Times,serif" font-size="14.00">c</text>
</g>
<!-- Node_14 -->
<g id="node15" class="node">
<title>Node_14</title>
<ellipse fill="none" stroke="black" cx="171" cy="-279" rx="27" ry="18"/>
<text text-anchor="middle" x="171" y="-275.3" font-family="Times,serif" font-size="14.00">a</text>
</g>
<!-- Node_13&#45;&gt;Node_14 -->
<g id="edge14" class="edge">
<title>Node_13&#45;&gt;Node_14</title>
<path fill="none" stroke="black" d="M171,-347.8C171,-336.16 171,-320.55 171,-307.24"/>
<polygon fill="black" stroke="black" points="174.5,-307.18 171,-297.18 167.5,-307.18 174.5,-307.18"/>
<text text-anchor="middle" x="175.5" y="-318.8" font-family="Times,serif" font-size="14.00">a</text>
</g>
<!-- Node_15 -->
<g id="node16" class="node">
<title>Node_15</title>
<ellipse fill="none" stroke="black" cx="171" cy="-192" rx="27" ry="18"/>
<text text-anchor="middle" x="171" y="-188.3" font-family="Times,serif" font-size="14.00">d</text>
</g>
<!-- Node_14&#45;&gt;Node_15 -->
<g id="edge15" class="edge">
<title>Node_14&#45;&gt;Node_15</title>
<path fill="none" stroke="black" d="M171,-260.8C171,-249.16 171,-233.55 171,-220.24"/>
<polygon fill="black" stroke="black" points="174.5,-220.18 171,-210.18 167.5,-220.18 174.5,-220.18"/>
<text text-anchor="middle" x="176" y="-231.8" font-family="Times,serif" font-size="14.00">d</text>
</g>
<!-- Node_16 -->
<g id="node17" class="node">
<title>Node_16</title>
<ellipse fill="none" stroke="black" cx="171" cy="-105" rx="27" ry="18"/>
<text text-anchor="middle" x="171" y="-101.3" font-family="Times,serif" font-size="14.00">o</text>
</g>
<!-- Node_15&#45;&gt;Node_16 -->
<g id="edge16" class="edge">
<title>Node_15&#45;&gt;Node_16</title>
<path fill="none" stroke="black" d="M171,-173.8C171,-162.16 171,-146.55 171,-133.24"/>
<polygon fill="black" stroke="black" points="174.5,-133.18 171,-123.18 167.5,-133.18 174.5,-133.18"/>
<text text-anchor="middle" x="175.5" y="-144.8" font-family="Times,serif" font-size="14.00">o</text>
</g>
<!-- Node_18 -->
<g id="node19" class="node">
<title>Node_18</title>
<ellipse fill="none" stroke="black" cx="243" cy="-540" rx="27" ry="18"/>
<text text-anchor="middle" x="243" y="-536.3" font-family="Times,serif" font-size="14.00">a</text>
</g>
<!-- Node_17&#45;&gt;Node_18 -->
<g id="edge18" class="edge">
<title>Node_17&#45;&gt;Node_18</title>
<path fill="none" stroke="black" d="M243,-608.8C243,-597.16 243,-581.55 243,-568.24"/>
<polygon fill="black" stroke="black" points="246.5,-568.18 243,-558.18 239.5,-568.18 246.5,-568.18"/>
<text text-anchor="middle" x="247.5" y="-579.8" font-family="Times,serif" font-size="14.00">a</text>
</g>
<!-- Node_23 -->
<g id="node24" class="node">
<title>Node_23</title>
<ellipse fill="none" stroke="black" cx="315" cy="-540" rx="27" ry="18"/>
<text text-anchor="middle" x="315" y="-536.3" font-family="Times,serif" font-size="14.00">i</text>
</g>
<!-- Node_17&#45;&gt;Node_23 -->
<g id="edge23" class="edge">
<title>Node_17&#45;&gt;Node_23</title>
<path fill="none" stroke="black" d="M255.87,-610.8C266.93,-597.75 283.04,-578.74 295.65,-563.85"/>
<polygon fill="black" stroke="black" points="298.45,-565.96 302.24,-556.06 293.11,-561.43 298.45,-565.96"/>
<text text-anchor="middle" x="285.5" y="-579.8" font-family="Times,serif" font-size="14.00">i</text>
</g>
<!-- Node_19 -->
<g id="node20" class="node">
<title>Node_19</title>
<ellipse fill="none" stroke="black" cx="243" cy="-453" rx="27" ry="18"/>
<text text-anchor="middle" x="243" y="-449.3" font-family="Times,serif" font-size="14.00">n</text>
</g>
<!-- Node_18&#45;&gt;Node_19 -->
<g id="edge19" class="edge">
<title>Node_18&#45;&gt;Node_19</title>
<path fill="none" stroke="black" d="M243,-521.8C243,-510.16 243,-494.55 243,-481.24"/>
<polygon fill="black" stroke="black" points="246.5,-481.18 243,-471.18 239.5,-481.18 246.5,-481.18"/>
<text text-anchor="middle" x="248" y="-492.8" font-family="Times,serif" font-size="14.00">n</text>
</g>
<!-- Node_20 -->
<g id="node21" class="node">
<title>Node_20</title>
<ellipse fill="none" stroke="black" cx="243" cy="-366" rx="27" ry="18"/>
<text text-anchor="middle" x="243" y="-362.3" font-family="Times,serif" font-size="14.00">a</text>
</g>
<!-- Node_19&#45;&gt;Node_20 -->
<g id="edge20" class="edge">
<title>Node_19&#45;&gt;Node_20</title>
<path fill="none" stroke="black" d="M243,-434.8C243,-423.16 243,-407.55 243,-394.24"/>
<polygon fill="black" stroke="black" points="246.5,-394.18 243,-384.18 239.5,-394.18 246.5,-394.18"/>
<text text-anchor="middle" x="247.5" y="-405.8" font-family="Times,serif" font-size="14.00">a</text>
</g>
<!-- Node_21 -->
<g id="node22" class="node">
<title>Node_21</title>
<ellipse fill="none" stroke="black" cx="243" cy="-279" rx="27" ry="18"/>
<text text-anchor="middle" x="243" y="-275.3" font-family="Times,serif" font-size="14.00">n</text>
</g>
<!-- Node_20&#45;&gt;Node_21 -->
<g id="edge21" class="edge">
<title>Node_20&#45;&gt;Node_21</title>
<path fill="none" stroke="black" d="M243,-347.8C243,-336.16 243,-320.55 243,-307.24"/>
<polygon fill="black" stroke="black" points="246.5,-307.18 243,-297.18 239.5,-307.18 246.5,-307.18"/>
<text text-anchor="middle" x="248" y="-318.8" font-family="Times,serif" font-size="14.00">n</text>
</g>
<!-- Node_22 -->
<g id="node23" class="node">
<title>Node_22</title>
<ellipse fill="none" stroke="black" cx="243" cy="-192" rx="27" ry="18"/>
<text text-anchor="middle" x="243" y="-188.3" font-family="Times,serif" font-size="14.00">a</text>
</g>
<!-- Node_21&#45;&gt;Node_22 -->
<g id="edge22" class="edge">
<title>Node_21&#45;&gt;Node_22</title>
<path fill="none" stroke="black" d="M243,-260.8C243,-249.16 243,-233.55 243,-220.24"/>
<polygon fill="black" stroke="black" points="246.5,-220.18 243,-210.18 239.5,-220.18 246.5,-220.18"/>
<text text-anchor="middle" x="247.5" y="-231.8" font-family="Times,serif" font-size="14.00">a</text>
</g>
<!-- Node_24 -->
<g id="node25" class="node">
<title>Node_24</title>
<ellipse fill="none" stroke="black" cx="315" cy="-453" rx="27" ry="18"/>
<text text-anchor="middle" x="315" y="-449.3" font-family="Times,serif" font-size="14.00">l</text>
</g>
<!-- Node_23&#45;&gt;Node_24 -->
<g id="edge24" class="edge">
<title>Node_23&#45;&gt;Node_24</title>
<path fill="none" stroke="black" d="M315,-521.8C315,-510.16 315,-494.55 315,-481.24"/>
<polygon fill="black" stroke="black" points="318.5,-481.18 315,-471.18 311.5,-481.18 318.5,-481.18"/>
<text text-anchor="middle" x="317.5" y="-492.8" font-family="Times,serif" font-size="14.00">l</text>
</g>
<!-- Node_25 -->
<g id="node26" class="node">
<title>Node_25</title>
<ellipse fill="none" stroke="black" cx="315" cy="-366" rx="27" ry="18"/>
<text text-anchor="middle" x="315" y="-362.3" font-family="Times,serif" font-size="14.00">b</text>
</g>
<!-- Node_24&#45;&gt;Node_25 -->
<g id="edge25" class="edge">
<title>Node_24&#45;&gt;Node_25</title>
<path fill="none" stroke="black" d="M315,-434.8C315,-423.16 315,-407.55 315,-394.24"/>
<polygon fill="black" stroke="black" points="318.5,-394.18 315,-384.18 311.5,-394.18 318.5,-394.18"/>
<text text-anchor="middle" x="320" y="-405.8" font-family="Times,serif" font-size="14.00">b</text>
</g>
<!-- Node_26 -->
<g id="node27" class="node">
<title>Node_26</title>
<ellipse fill="none" stroke="black" cx="315" cy="-279" rx="27" ry="18"/>
<text text-anchor="middle" x="315" y="-275.3" font-family="Times,serif" font-size="14.00">e</text>
</g>
<!-- Node_25&#45;&gt;Node_26 -->
<g id="edge26" class="edge">
<title>Node_25&#45;&gt;Node_26</title>
<path fill="none" stroke="black" d="M315,-347.8C315,-336.16 315,-320.55 315,-307.24"/>
<polygon fill="black" stroke="black" points="318.5,-307.18 315,-297.18 311.5,-307.18 318.5,-307.18"/>
<text text-anchor="middle" x="319.5" y="-318.8" font-family="Times,serif" font-size="14.00">e</text>
</g>
<!-- Node_27 -->
<g id="node28" class="node">
<title>Node_27</title>
<ellipse fill="none" stroke="black" cx="315" cy="-192" rx="27" ry="18"/>
<text text-anchor="middle" x="315" y="-188.3" font-family="Times,serif" font-size="14.00">r</text>
</g>
<!-- Node_26&#45;&gt;Node_27 -->
<g id="edge27" class="edge">
<title>Node_26&#45;&gt;Node_27</title>
<path fill="none" stroke="black" d="M315,-260.8C315,-249.16 315,-233.55 315,-220.24"/>
<polygon fill="black" stroke="black" points="318.5,-220.18 315,-210.18 311.5,-220.18 318.5,-220.18"/>
<text text-anchor="middle" x="318.5" y="-231.8" font-family="Times,serif" font-size="14.00">r</text>
</g>
<!-- Node_28 -->
<g id="node29" class="node">
<title>Node_28</title>
<ellipse fill="none" stroke="black" cx="315" cy="-105" rx="27" ry="18"/>
<text text-anchor="middle" x="315" y="-101.3" font-family="Times,serif" font-size="14.00">r</text>
</g>
<!-- Node_27&#45;&gt;Node_28 -->
<g id="edge28" class="edge">
<title>Node_27&#45;&gt;Node_28</title>
<path fill="none" stroke="black" d="M315,-173.8C315,-162.16 315,-146.55 315,-133.24"/>
<polygon fill="black" stroke="black" points="318.5,-133.18 315,-123.18 311.5,-133.18 318.5,-133.18"/>
<text text-anchor="middle" x="318.5" y="-144.8" font-family="Times,serif" font-size="14.00">r</text>
</g>
<!-- Node_29 -->
<g id="node30" class="node">
<title>Node_29</title>
<ellipse fill="none" stroke="black" cx="315" cy="-18" rx="27" ry="18"/>
<text text-anchor="middle" x="315" y="-14.3" font-family="Times,serif" font-size="14.00">y</text>
</g>
<!-- Node_28&#45;&gt;Node_29 -->
<g id="edge29" class="edge">
<title>Node_28&#45;&gt;Node_29</title>
<path fill="none" stroke="black" d="M315,-86.8C315,-75.16 315,-59.55 315,-46.24"/>
<polygon fill="black" stroke="black" points="318.5,-46.18 315,-36.18 311.5,-46.18 318.5,-46.18"/>
<text text-anchor="middle" x="319.5" y="-57.8" font-family="Times,serif" font-size="14.00">y</text>
</g>
</g>
</svg>
